<svg width="187" height="38" viewBox="0 0 187 38" fill="none" xmlns="http://www.w3.org/2000/svg">
<g clip-path="url(#clip0_21_4232)">
<path fill-rule="evenodd" clip-rule="evenodd" d="M24.4517 13.634L19.2946 8.55548C15.9028 5.21542 10.4016 5.21884 7.00977 8.5589L13.1539 2.50162C14.7803 0.900036 16.9975 0 19.2946 0C21.5187 0 23.7428 0.835014 25.4387 2.50504C31.0233 8.0045 31.3013 8.27828 36.8825 13.7743C33.2961 17.306 27.8887 17.0186 24.4517 13.634Z" fill="url(#paint0_linear_21_4232)"/>
<path fill-rule="evenodd" clip-rule="evenodd" d="M8.69145 18.5551C5.29967 21.8951 5.30314 27.3125 8.69145 30.6525L2.54036 24.6021C0.913975 23.0005 0 20.8172 0 18.5551C0 16.3649 0.851422 14.1747 2.54731 12.5047L5.57768 9.5205C8.80961 6.33786 14.2761 5.9888 17.8625 9.51366L20.5036 12.1111C18.0084 11.4643 15.9581 11.3993 14.0015 13.326L8.69493 18.5517L8.69145 18.5551Z" fill="#7371FC"/>
<path fill-rule="evenodd" clip-rule="evenodd" d="M19.2975 29.4416C22.6893 32.7816 28.1905 32.7782 31.5823 29.4416L25.4382 35.4989C23.8118 37.1004 21.5946 38.0005 19.2975 38.0039C17.0734 38.0039 14.8493 37.1655 13.1534 35.4954L10.123 32.5113C6.89108 29.3287 6.53662 23.9455 10.1161 20.4173L12.7537 17.8164C12.0969 20.2735 12.0309 22.2926 13.9874 24.2193L19.294 29.445L19.2975 29.4416Z" fill="url(#paint1_linear_21_4232)"/>
<path fill-rule="evenodd" clip-rule="evenodd" d="M24.6006 24.2221C22.6545 26.1385 20.5798 26.0735 18.0742 25.4198L20.7293 28.0344C24.1245 31.3779 29.6292 31.3642 33.0141 28.031C37.3546 23.7567 31.5649 29.4649 36.8854 24.2255C33.4936 20.8854 27.9924 20.882 24.6006 24.2221Z" fill="#7371FC"/>
<path d="M43.7248 25.0387C42.2547 23.6527 41.5215 21.7705 41.5215 19.3887C41.5215 17.8213 41.8794 16.4353 42.5918 15.2341C43.3043 14.0329 44.3086 13.1055 45.6014 12.4553C46.8941 11.8051 48.3885 11.4766 50.0844 11.4766C51.2207 11.4766 52.3224 11.6408 53.3893 11.9659C54.4527 12.291 55.318 12.7291 55.9783 13.2801L54.5812 16.9452C54.0634 16.538 53.4379 16.206 52.7046 15.9528C51.9714 15.6995 51.2833 15.5695 50.6404 15.5695C49.5248 15.5695 48.67 15.8741 48.0826 16.4866C47.4919 17.0992 47.1999 18.0232 47.1999 19.2655C47.1999 20.5077 47.4953 21.4454 48.0826 22.0751C48.6734 22.7082 49.5248 23.023 50.6404 23.023C51.2798 23.023 51.9679 22.8964 52.7046 22.6397C53.4379 22.3865 54.0634 22.0443 54.5812 21.6165L55.9783 25.3125C55.2763 25.884 54.3797 26.3254 53.2954 26.6403C52.2112 26.9551 51.0574 27.1125 49.8376 27.1125C47.2312 27.1125 45.1948 26.4213 43.7248 25.0353V25.0387Z" fill="white"/>
<path d="M69.5075 15.9074L66.498 16.212C65.2991 16.3352 64.4616 16.65 63.9855 17.1599C63.5094 17.6698 63.2731 18.3919 63.2731 19.3296V26.8755H57.751V11.8453H62.995V14.4427C63.346 13.5256 63.9264 12.8274 64.7326 12.3483C65.5389 11.8692 66.5224 11.5989 67.6796 11.5373L69.1983 11.4141L69.5075 15.904V15.9074Z" fill="white"/>
<path d="M84.5821 20.3977H75.1504C75.3172 21.3765 75.6786 22.078 76.2347 22.5058C76.7942 22.9336 77.59 23.1492 78.6221 23.1492C79.3658 23.1492 80.1199 23.026 80.888 22.783C81.6525 22.54 82.3371 22.2012 82.9348 21.7734L84.3319 25.3462C83.5673 25.8972 82.6464 26.3284 81.5691 26.6432C80.4918 26.9581 79.418 27.1155 78.3441 27.1155C76.5857 27.1155 75.067 26.8006 73.7847 26.1675C72.5023 25.5379 71.5154 24.631 70.8203 23.4469C70.1288 22.2662 69.7812 20.8803 69.7812 19.2924C69.7812 17.7045 70.1079 16.4348 70.7578 15.2439C71.4111 14.053 72.3181 13.1256 73.4893 12.4651C74.6569 11.8046 75.9775 11.4727 77.444 11.4727C79.6369 11.4727 81.3745 12.1605 82.6568 13.5362C83.9392 14.912 84.5821 16.7907 84.5821 19.1726V20.3943V20.3977ZM75.0879 17.8311H79.9566C79.8315 16.0379 79.0461 15.1412 77.6004 15.1412C76.1547 15.1412 75.2929 16.0379 75.0879 17.8311Z" fill="white"/>
<path d="M99.3969 13.1168C100.544 14.205 101.117 15.9024 101.117 18.2021V26.8774H95.9356V24.7693C95.6472 25.5017 95.1607 26.0766 94.476 26.4941C93.7949 26.9116 92.9748 27.1204 92.026 27.1204C90.9696 27.1204 90.0209 26.9116 89.1729 26.4941C88.325 26.0766 87.6577 25.4948 87.1712 24.7522C86.6847 24.0096 86.4414 23.1677 86.4414 22.2301C86.4414 21.1521 86.7264 20.2897 87.2963 19.6497C87.8662 19.0063 88.7698 18.5444 90.0104 18.2603C91.2511 17.9763 92.9261 17.8325 95.0356 17.8325H95.8731V17.4664C95.8731 16.7135 95.6958 16.1899 95.3448 15.8922C94.9938 15.5978 94.3718 15.4507 93.4821 15.4507C92.7802 15.4507 91.967 15.5876 91.046 15.8648C90.1251 16.1386 89.2633 16.491 88.457 16.9188L87.06 13.346C87.9496 12.8156 89.0617 12.3741 90.3962 12.0182C91.7306 11.6623 92.9539 11.4844 94.0729 11.4844C96.4708 11.4844 98.2466 12.0285 99.3934 13.1202L99.3969 13.1168ZM95.1607 22.7092C95.6368 22.189 95.8731 21.5217 95.8731 20.7072V20.341H95.3761C94.0521 20.341 93.1103 20.4574 92.5543 20.6935C91.9948 20.9262 91.7167 21.3198 91.7167 21.8707C91.7167 22.3396 91.8662 22.7263 92.165 23.0308C92.4639 23.3354 92.8531 23.4894 93.3292 23.4894C94.0729 23.4894 94.6846 23.2293 95.1607 22.7092Z" fill="white"/>
<path d="M114.862 23.116L114.584 26.9967C113.92 27.0789 113.281 27.1199 112.662 27.1199C110.181 27.1199 108.377 26.6066 107.248 25.5765C106.122 24.5499 105.555 22.9551 105.555 20.7957V15.8472H102.702V11.8467H105.555V7.47656H111.077V11.8467H114.737V15.8472H111.077V20.8265C111.077 22.4144 111.831 23.2084 113.343 23.2084C113.798 23.2084 114.306 23.1776 114.862 23.116Z" fill="white"/>
<path d="M116.658 4.32812H122.427V9.24581H116.658V4.32812ZM116.783 26.8735V11.8433H122.305V26.8735H116.783Z" fill="white"/>
<path d="M135.925 11.875H141.322L134.528 26.8745H129.969L123.269 11.875H129.037L132.387 20.3381L135.925 11.875Z" fill="white"/>
<path d="M142.16 4.32812H147.929V9.24581H142.16V4.32812ZM142.285 26.8735V11.8433H147.807V26.8735H142.285Z" fill="white"/>
<path d="M154.274 26.1539C153.002 25.5105 152.019 24.6002 151.327 23.4195C150.636 22.2389 150.288 20.8529 150.288 19.265C150.288 17.6771 150.636 16.2979 151.327 15.1241C152.019 13.9537 152.999 13.0503 154.26 12.4206C155.522 11.7909 156.999 11.4727 158.698 11.4727C160.397 11.4727 161.871 11.7875 163.136 12.4206C164.397 13.0503 165.374 13.9537 166.069 15.1241C166.76 16.2945 167.108 17.6737 167.108 19.265C167.108 20.8563 166.76 22.2389 166.069 23.4195C165.377 24.6002 164.397 25.5139 163.136 26.1539C161.874 26.7938 160.394 27.1155 158.698 27.1155C157.002 27.1155 155.55 26.7938 154.278 26.1539H154.274ZM161.642 19.265C161.642 16.7394 160.658 15.4766 158.695 15.4766C156.731 15.4766 155.748 16.7394 155.748 19.265C155.748 21.7906 156.731 23.0533 158.695 23.0533C160.658 23.0533 161.642 21.7906 161.642 19.265Z" fill="white"/>
<path d="M180.921 15.0259L179.983 12.8836H175.337L174.398 15.0259H171.643L176.543 4.6875H178.718L183.632 15.0259H180.921ZM176.216 10.8611H179.104L177.658 7.54845L176.212 10.8611H176.216Z" fill="#7371FC"/>
<path d="M184.258 15.0259V4.6875H186.996V15.0259H184.258Z" fill="#7371FC"/>
</g>
<defs>
<linearGradient id="paint0_linear_21_4232" x1="7.00977" y1="8.15011" x2="40.2032" y2="9.40694" gradientUnits="userSpaceOnUse">
<stop stop-color="#563BFF"/>
<stop offset="0.435994" stop-color="#7371FC"/>
<stop offset="1" stop-color="#D94FD5"/>
</linearGradient>
<linearGradient id="paint1_linear_21_4232" x1="7.56348" y1="27.9101" x2="34.2744" y2="28.5668" gradientUnits="userSpaceOnUse">
<stop stop-color="#563BFF"/>
<stop offset="0.435994" stop-color="#7371FC"/>
<stop offset="1" stop-color="#D94FD5"/>
</linearGradient>
<clipPath id="clip0_21_4232">
<rect width="187" height="38" fill="white"/>
</clipPath>
</defs>
</svg>
